<svg xmlns="http://www.w3.org/2000/svg" width="512" height="512" viewBox="0 0 64 64">
  <defs>
    <linearGradient id="toothBody" x1="0" y1="0" x2="1" y2="1">
      <stop offset="0" stop-color="#FFFFFF"/>
      <stop offset="1" stop-color="#D6F2FD"/>
    </linearGradient>
    <linearGradient id="gum" x1="0" y1="0" x2="0" y2="1">
      <stop offset="0" stop-color="#A78BFA"/>
      <stop offset="1" stop-color="#8B5CF6"/>
    </linearGradient>
  </defs>

  <!-- 牙龈（浅紫） -->
  <path d="M12 50c0 5 8 8 20 8s20-3 20-8c0-4-4-6-8-7-6 2-8 2-12 2s-6 0-12-2c-4 1-8 3-8 7z" fill="url(#gum)"/>
  <ellipse cx="24" cy="47.5" rx="2.2" ry="1.4" fill="#fff" opacity="0.28"/>
  <ellipse cx="40" cy="47.5" rx="2.2" ry="1.4" fill="#fff" opacity="0.28"/>

  <!-- 牙体 -->
  <path d="M32 4.5C21 4.5 14.5 10.6 14 21.5l.2 8c.6 9.5 3.4 17 7.5 21.6.9 1 2.9 1 3.3-.4l1.6-4.6c.3-.9 2-.9 2.3 0l1.9 5.8c.7 2 3.9 2 4.6 0l1.9-5.8c.3-.9 2-.9 2.3 0l1.6 4.6c.4 1.4 2.4 1.4 3.3.4 4.1-4.6 6.9-12.1 7.5-21.6l.2-8C49.5 10.6 43 4.5 32 4.5z"
        fill="url(#toothBody)" stroke="#67CEF3" stroke-width="1.6" stroke-linejoin="round"/>

  <!-- 高光 -->
  <ellipse cx="27" cy="10.5" rx="4" ry="2.3" fill="#fff" opacity="0.9" transform="rotate(-14 27 10.5)"/>

  <!-- 眼睛 -->
  <circle cx="26" cy="20.5" r="3.7" fill="#0EA5E9"/>
  <circle cx="38" cy="20.5" r="3.7" fill="#0EA5E9"/>
  <circle cx="27.3" cy="18.9" r="1.25" fill="#fff"/>
  <circle cx="39.3" cy="18.9" r="1.25" fill="#fff"/>

  <!-- 微笑 -->
  <path d="M28 29.2c2 1.9 6 1.9 8 0" stroke="#0B3B52" stroke-width="2" stroke-linecap="round" fill="none"/>

  <!-- 腮红（浅紫粉） -->
  <ellipse cx="21" cy="27.5" rx="3" ry="1.9" fill="#C4B5FD" opacity="0.65"/>
  <ellipse cx="43" cy="27.5" rx="3" ry="1.9" fill="#C4B5FD" opacity="0.65"/>
</svg>